<?xml version="1.0" encoding="UTF-8" standalone="no"?>
<svg
   xmlns:dc="http://purl.org/dc/elements/1.1/"
   xmlns:cc="http://creativecommons.org/ns#"
   xmlns:rdf="http://www.w3.org/1999/02/22-rdf-syntax-ns#"
   xmlns:svg="http://www.w3.org/2000/svg"
   xmlns="http://www.w3.org/2000/svg"
   xmlns:xlink="http://www.w3.org/1999/xlink"
   xmlns:sodipodi="http://sodipodi.sourceforge.net/DTD/sodipodi-0.dtd"
   xmlns:inkscape="http://www.inkscape.org/namespaces/inkscape"
   version="1.0"
   width="1332.6479pt"
   height="577.14398pt"
   viewBox="0 0 1332.6479 577.14398"
   preserveAspectRatio="xMidYMid meet"
   id="svg17"
   sodipodi:docname="madguy.svg"
   inkscape:version="0.92.4 (5da689c313, 2019-01-14)">
  <defs
     id="defs21">
    <linearGradient
       inkscape:collect="always"
       id="linearGradient3764">
      <stop
         style="stop-color:#ff0000;stop-opacity:1"
         offset="0"
         id="stop3760" />
      <stop
         style="stop-color:#ffff00;stop-opacity:1"
         offset="1"
         id="stop3762" />
    </linearGradient>
    <linearGradient
       inkscape:collect="always"
       id="linearGradient3754">
      <stop
         id="stop3752"
         offset="0"
         style="stop-color:#ff0000;stop-opacity:1" />
      <stop
         id="stop3750"
         offset="1"
         style="stop-color:#ffff00;stop-opacity:1" />
    </linearGradient>
    <linearGradient
       inkscape:collect="always"
       xlink:href="#linearGradient3754"
       id="linearGradient3756"
       x1="11245.07"
       y1="5363.3804"
       x2="7121.127"
       y2="3312.676"
       gradientUnits="userSpaceOnUse" />
    <linearGradient
       inkscape:collect="always"
       xlink:href="#linearGradient3764"
       id="linearGradient3766"
       x1="653.52112"
       y1="5521.1265"
       x2="5318.3101"
       y2="3538.0281"
       gradientUnits="userSpaceOnUse" />
  </defs>
  <sodipodi:namedview
     pagecolor="#ffffff"
     bordercolor="#666666"
     borderopacity="1"
     objecttolerance="10"
     gridtolerance="10"
     guidetolerance="10"
     inkscape:pageopacity="0"
     inkscape:pageshadow="2"
     inkscape:window-width="1920"
     inkscape:window-height="1027"
     id="namedview19"
     showgrid="false"
     inkscape:zoom="1.28"
     inkscape:cx="82.707838"
     inkscape:cy="788.29097"
     inkscape:window-x="-8"
     inkscape:window-y="-8"
     inkscape:window-maximized="1"
     inkscape:current-layer="madguy"
     fit-margin-top="0"
     fit-margin-left="0"
     fit-margin-right="0"
     fit-margin-bottom="0" />
  <metadata
     id="metadata2">
Created by potrace 1.15, written by Peter Selinger 2001-2017
<rdf:RDF>
  <cc:Work
     rdf:about="">
    <dc:format>image/svg+xml</dc:format>
    <dc:type
       rdf:resource="http://purl.org/dc/dcmitype/StillImage" />
    <dc:title></dc:title>
  </cc:Work>
</rdf:RDF>
</metadata>
  <path
     inkscape:connector-curvature="0"
     style="display:inline;fill:#000000;fill-opacity:1;stroke-width:0.11693408"
     id="path3782"
     d="m 1163.5046,1.4998072 c -10.2443,2.358351 -29.4387,10.6733318 -42.2651,18.1937278 -6.3579,3.760803 -19.2861,11.156462 -28.8563,16.488336 -9.4509,5.209619 -18.3572,10.548839 -19.6623,11.770243 -2.4816,2.197099 -28.8162,17.477499 -50.2309,28.981166 -6.6811,3.633622 -24.18447,13.079642 -39.03775,21.071932 -25.51863,13.489568 -32.53122,21.921608 -40.95266,12.683028 -5.13603,-5.61825 -16.09763,-4.99013 -23.88645,-4.45843 -5.11589,0.31412 -15.95072,6.71922 -25.63187,14.32453 -30.83883,27.21843 -62.55944,52.13339 -69.0719,56.51045 -7.79122,5.22796 -8.49025,5.7146 -17.3073,12.90861 -2.70318,2.1946 -7.14495,5.4823 -9.93228,7.30524 -12.00424,10.87579 -6.01728,5.31946 -37.05113,32.33616 -16.55861,18.70445 -21.15344,16.96611 -33.40878,40.71565 -2.71998,12.93837 -5.06817,22.95634 8.03395,24.17961 22.90053,-13.56836 27.2057,-15.44995 40.24947,-25.30239 18.20624,-11.53919 66.57533,-37.69844 81.43343,-44.20767 5.9381,-2.52956 22.07491,-9.88975 35.93743,-16.40994 24.28269,-11.34833 29.41982,-13.51606 49.13243,-21.33097 25.28337,-9.85427 37.29278,-13.67608 81.52571,-25.29794 27.8735,-7.35382 69.0047,-17.40338 75.2797,-18.44618 4.1466,-0.69562 13.479,-2.69329 20.8115,-4.58953 7.2218,-1.89742 18.5546,-3.99653 25.1439,-4.7887 6.5809,-0.66872 14.422,-1.94134 17.3691,-2.89742 7.5979,-2.51121 28.8317,-2.15659 49.1717,-1.68424 14.4852,0.284 18.7548,-2.13656 26.326,-4.2773 4.9737,-1.42798 10.6201,-2.97212 12.545,-3.56873 2.0266,-0.47191 4.1904,-1.31305 5,-1.79845 0.6993,-0.48659 3.9868,-1.5625 7.1463,-2.39263 14.2223,-3.79733 35.4951,-16.41486 50.6422,-30.088868 18.7039,-16.9715 23.5855,-26.433641 19.1773,-37.605213 -2.4191,-6.453287 -7.09,-10.8305 -13.6717,-13.251502 -3.0276,-1.022215 -6.1307,-2.539599 -6.8523,-3.289107 -2.2757,-2.249742 -30.4763,-4.29212 -51.6614,-3.785108 -19.4145,0.526613 -34.4074,2.708795 -58.8475,8.494014 -7.2041,1.650455 -13.8109,2.6896 -14.7802,2.308113 -1.2925,-0.508641 -1.4886,-3.971254 -1.3433,-15.339588 0.2497,-15.9398958 -0.4329,-18.7899528 -5.9135,-22.6818058 -3.8914,-2.885551 -5.2188,-2.900244 -14.5605,-0.779098 z"
     inkscape:transform-center-x="-471.07335"
     inkscape:transform-center-y="177.64758"
     sodipodi:nodetypes="ccccccccccccccccccccccccccccccccccccccc" />
  <g
     transform="matrix(0.1,0,0,-0.1,18.768967,620.14401)"
     id="madguy"
     style="fill:#000000;stroke:none"
     inkscape:label="madguy">
    <path
       inkscape:connector-curvature="0"
       style="display:inline;fill:#000000;fill-opacity:1;stroke-width:1.09171498"
       id="path4594"
       d="m 1462.3945,5831.3908 c -30.8389,-14.5702 -60.6143,-76.2129 -70.1849,-142.3384 -21.2683,-147.9422 -32.9658,-150.1836 -339.2277,-72.8504 -336.03716,85.1789 -394.52464,95.2658 -599.7626,103.1112 -205.23794,7.8454 -332.84703,-5.6039 -461.5195308,-48.1933 -74.4386352,-24.6569 -82.9459082,-31.3816 -124.4188592,-89.6619 -52.10704,-73.9711 -60.61432,-110.9566 -52.10704,-230.8794 5.31704,-80.696 9.57068,-96.3868 44.66317,-150.1839 22.3316,-33.6232 69.121593,-81.8165 106.340911,-109.8358 36.155904,-28.0195 80.819091,-68.3672 99.960452,-90.7827 247.074737,-191.2865 474.331897,-261.5468 775.004347,-272.0083 326.46665,-12.3285 780.81835,-49.1441 914.80795,-70.4388 55.2973,-10.0869 179.6608,-22.9253 273.2408,-38.6161 171.2089,-26.8986 240.3304,-42.5896 696.533,-155.7876 506.1828,-125.5267 648.6795,-166.9953 913.4684,-260.0197 328.5934,-116.5606 813.508,-327.2661 969.8291,-421.4111 38.2827,-23.5363 73.3753,-42.5895 77.6288,-42.5895 12.7609,0 238.2037,-133.372 311.5788,-184.9276 128.6727,-88.5411 162.936,-102.638 199.0919,-113.8458 216.065,-29.0377 255.2,82.5591 212.4333,236.2973 -12.7609,40.3478 -127.5949,248.5247 -351.9741,566.8247 -125.4823,179.3238 -531.7046,628.7542 -678.455,752.0395 -52.1072,44.831 -133.7503,99.0607 -163.5257,124.8384 -63.8045,56.0387 -115.9116,74.9249 -302.0082,156.7415 -174.3991,77.3334 -241.338,82.5047 -305.1425,18.6206 -43.5998,-44.8309 -56.6426,-62.2422 -73.6571,-153.0249 -15.9512,-90.7827 -63.0868,-41.4992 -92.3411,-32.7102 -27.4978,8.2614 -102.2762,35.7183 -275.6119,125.3803 -63.8045,33.623 -164.8283,81.8164 -223.3158,106.4735 -58.4875,25.7777 -132.9262,61.6424 -164.8285,80.6957 -65.9312,36.9855 -119.1017,59.4011 -386.0174,161.3916 -104.2141,39.227 -227.5696,81.8163 -273.2962,93.024 -45.7266,12.3287 -106.3408,34.7441 -135.053,49.3141 -158.4478,84.0581 -449.822,142.3384 -522.1338,105.353 z"
       sodipodi:nodetypes="cccsccccccccccccscccccccccsccccccc" />
    <path
       d="m 11235,5965 c -91,-20 -259,-89 -370,-151 -55,-31 -167,-92 -250,-136 -82,-43 -159,-87 -170,-97 -21,-18 -249,-144 -435,-239 -58,-30 -210,-108 -339,-174 -350,-180 -381,-187 -463,-113 -50,45 -68,50 -138,45 -46,-3 -146,-57 -216,-117 -261,-223 -517,-433 -573,-469 -67,-43 -73,-47 -148,-106 -23,-18 -61,-45 -85,-60 -123,-78 -291,-223 -528,-453 -91,-89 -215,-205 -277,-258 -68,-60 -115,-109 -121,-127 -6,-16 -14,-61 -18,-100 -11,-113 14,-124 136,-61 73,38 106,58 260,161 205,137 273,181 394,254 157,95 577,311 707,365 52,21 193,82 314,136 212,94 257,112 430,177 222,82 328,114 720,212 247,62 612,147 668,156 37,6 120,23 185,39 64,16 165,34 224,41 59,6 129,17 155,25 67,21 259,36 443,34 131,-1 168,3 235,21 44,12 94,25 111,30 18,4 37,11 44,15 6,4 35,13 63,20 126,32 310,136 438,248 158,139 196,216 149,306 -26,52 -71,87 -132,106 -28,8 -57,20 -64,26 -22,18 -278,32 -469,26 -175,-6 -309,-25 -526,-74 -64,-14 -123,-23 -132,-20 -12,4 -16,32 -22,124 -8,129 -16,152 -68,183 -37,23 -49,23 -132,5 z"
       id="path4"
       style="display:inline;fill:url(#linearGradient3756);fill-opacity:1"
       inkscape:connector-curvature="0" />
    <path
       d="m 1552,5737 c -29,-13 -57,-68 -66,-127 -20,-132 -31,-134 -319,-65 -316,76 -371,85 -564,92 -193,7 -313,-5 -434,-43 -70,-22 -78,-28 -117,-80 -49,-66 -57,-99 -49,-206 5,-72 9,-86 42,-134 21,-30 65,-73 100,-98 34,-25 76,-61 94,-81 78,-89 157,-125 411,-185 52,-12 104,-28 115,-35 13,-9 79,-15 195,-19 307,-11 744,-42 870,-61 52,-9 167,-26 255,-40 161,-24 226,-38 655,-139 476,-112 610,-149 859,-232 309,-104 765,-292 912,-376 36,-21 69,-38 73,-38 12,0 224,-119 293,-165 121,-79 199,-123 233,-133 19,-5 57,-23 84,-41 28,-17 63,-31 80,-31 37,0 87,37 87,65 1,43 -20,148 -34,168 -8,12 -20,39 -26,60 -12,36 -157,243 -368,527 -118,160 -500,561 -638,671 -49,40 -112,91 -140,114 -60,50 -109,76 -284,149 -164,69 -187,71 -247,14 -41,-40 -45,-49 -61,-130 -15,-81 -18,-88 -40,-88 -27,0 -205,75 -368,155 -60,30 -155,73 -210,95 -55,23 -125,55 -155,72 -62,33 -112,53 -363,144 -98,35 -214,73 -257,83 -43,11 -100,31 -127,44 -149,75 -423,127 -491,94 z"
       id="path6"
       style="display:inline;fill:url(#linearGradient3766);fill-opacity:1"
       inkscape:connector-curvature="0" />
    <path
       d="m 11693,4489 c -135,-13 -453,-94 -648,-164 -252,-92 -445,-159 -505,-176 -104,-29 -322,-106 -497,-175 -89,-36 -190,-74 -225,-85 -87,-29 -378,-171 -523,-256 -125,-74 -143,-86 -296,-192 -88,-61 -335,-211 -347,-211 -3,0 -13,-6 -21,-13 -9,-8 -45,-26 -81,-41 -36,-15 -96,-49 -135,-75 -236,-160 -493,-262 -719,-286 -33,-3 -79,-11 -103,-17 -70,-17 -277,12 -372,53 -29,12 -99,56 -154,97 -122,89 -152,105 -177,97 -26,-8 -26,-40 -1,-98 11,-25 17,-54 15,-64 -9,-35 136,-162 251,-220 47,-24 215,-76 298,-93 39,-8 60,-17 63,-28 24,-83 281,-368 425,-472 27,-19 79,-60 116,-91 100,-83 358,-265 497,-351 28,-16 268,-112 375,-148 85,-29 178,-50 329,-75 198,-33 226,-35 440,-35 374,0 482,16 783,118 183,62 233,84 297,130 421,297 562,470 712,867 70,187 82,251 87,500 4,186 1,242 -16,364 -36,253 -92,412 -196,561 -79,113 -156,232 -153,235 7,7 201,55 298,74 268,53 525,68 643,36 32,-8 69,-15 82,-15 38,0 75,39 82,87 7,52 -19,98 -79,143 l -42,30 -210,-1 c -116,-1 -248,-5 -293,-10 z m -714,-449 c 12,-17 56,-56 97,-86 85,-63 128,-122 199,-269 96,-201 135,-400 135,-690 0,-169 -14,-259 -62,-400 -108,-317 -224,-494 -440,-668 -313,-251 -588,-347 -1049,-367 -335,-14 -530,9 -876,106 -186,52 -297,104 -527,249 -17,11 -57,39 -87,63 -31,23 -60,42 -66,42 -5,0 -27,15 -49,33 -21,18 -51,42 -65,52 -68,51 -179,142 -222,184 -54,51 -183,200 -211,243 -20,31 -22,30 59,48 153,33 416,124 482,167 13,9 26,14 28,11 3,-2 9,-71 15,-154 14,-187 35,-263 95,-353 86,-128 201,-209 378,-264 184,-59 254,-75 420,-97 139,-19 171,-21 260,-11 137,15 235,30 277,43 69,20 226,91 260,118 19,15 45,32 58,39 41,22 224,185 322,287 175,181 222,260 284,474 62,217 69,276 64,492 -5,161 -9,194 -32,273 -15,50 -36,110 -47,135 -11,25 -26,77 -34,115 -7,39 -16,77 -20,86 -5,12 8,20 60,38 37,12 83,29 103,38 31,13 145,50 163,52 3,1 15,-13 28,-29 z"
       id="path8"
       inkscape:connector-curvature="0"
       style="display:inline" />
    <path
       d="m 1500,4423 c -25,-2 -99,-12 -165,-24 -66,-11 -138,-24 -160,-27 -49,-9 -65,-37 -66,-116 -1,-78 35,-141 87,-150 30,-6 43,-3 74,19 36,25 46,27 147,26 85,0 139,-8 256,-34 81,-19 150,-37 153,-40 4,-3 -30,-48 -74,-100 -146,-169 -308,-454 -352,-617 -118,-437 -116,-707 8,-944 55,-105 226,-278 367,-371 126,-83 157,-100 240,-131 33,-12 112,-43 175,-69 103,-43 131,-50 270,-66 368,-45 532,-55 615,-40 33,7 123,19 200,27 77,8 167,21 200,29 33,7 80,16 105,20 24,3 105,24 180,46 74,23 168,49 208,60 46,12 135,51 240,106 92,49 184,95 205,104 21,8 82,50 135,91 54,42 120,94 148,116 53,41 232,247 277,318 l 25,41 89,7 c 116,9 211,29 263,56 57,29 193,162 220,213 11,23 28,54 37,68 21,34 12,70 -31,117 -31,33 -36,35 -60,24 -14,-6 -41,-33 -61,-60 -32,-45 -45,-54 -138,-92 -100,-42 -104,-43 -244,-48 -150,-5 -192,0 -439,54 -74,17 -123,33 -145,49 -18,14 -42,25 -54,25 -11,0 -58,18 -103,40 -44,22 -84,40 -88,40 -4,0 -45,22 -93,49 -47,27 -111,59 -141,71 -30,12 -75,34 -100,50 -25,16 -101,51 -170,79 -69,27 -155,66 -191,85 -36,20 -109,54 -161,75 -53,22 -113,52 -134,66 -22,15 -86,51 -144,81 -58,29 -127,72 -155,94 -27,22 -69,52 -93,68 -24,15 -67,42 -95,61 -164,109 -485,244 -762,319 -38,11 -122,42 -185,69 -107,47 -210,75 -256,71 -10,-1 -39,-3 -64,-5 z m 610,-449 c 36,-14 164,-74 285,-134 121,-59 244,-118 273,-130 28,-12 52,-25 52,-29 -1,-3 -22,-22 -47,-41 -152,-116 -267,-250 -340,-397 -96,-196 -123,-359 -84,-515 62,-247 139,-358 377,-542 76,-59 260,-125 369,-133 67,-5 333,18 435,37 91,17 279,106 394,187 90,62 175,171 217,277 27,69 68,209 100,341 6,22 13,43 17,46 12,12 108,-19 279,-90 93,-38 197,-77 233,-87 36,-9 69,-21 74,-25 16,-14 -5,-44 -137,-188 -104,-114 -147,-152 -226,-205 -141,-92 -337,-189 -476,-235 -307,-102 -375,-118 -630,-152 -342,-45 -436,-46 -715,-8 -190,27 -284,49 -403,98 -214,87 -306,144 -435,265 -110,104 -162,175 -203,278 -33,81 -34,86 -33,233 1,296 66,531 227,822 102,185 250,353 310,353 12,0 51,-12 87,-26 z"
       id="path10"
       inkscape:connector-curvature="0"
       style="display:inline" />
    <path
       d="m 1582,1888 c -18,-18 -15,-64 7,-106 31,-61 156,-173 236,-211 155,-74 263,-106 455,-136 182,-28 212,-43 157,-80 -83,-54 -657,-165 -854,-165 -65,0 -74,-2 -88,-24 -20,-30 -30,-87 -21,-120 3,-14 23,-37 43,-51 33,-22 48,-25 125,-25 48,0 131,4 185,10 54,5 202,19 328,30 251,22 417,44 510,67 33,9 83,20 110,25 28,6 66,17 85,25 19,8 87,26 150,38 63,13 133,31 155,41 22,9 114,38 205,64 208,61 376,135 511,225 59,40 122,77 140,84 70,25 117,53 129,76 18,33 7,98 -24,146 -22,32 -32,39 -59,39 -19,0 -52,-12 -78,-28 -41,-26 -165,-72 -289,-106 -63,-17 -215,-40 -380,-57 -63,-6 -118,-13 -121,-15 -20,-12 -310,-46 -439,-50 -155,-6 -196,-3 -480,40 -52,8 -128,19 -168,25 -40,6 -88,19 -105,28 -18,9 -66,31 -108,48 -73,30 -141,73 -223,142 -41,34 -73,42 -94,21 z"
       id="path12"
       inkscape:connector-curvature="0" />
    <path
       d="m 8228,1598 c -19,-27 -24,-49 -26,-119 -4,-101 10,-164 41,-180 12,-7 86,-61 163,-120 211,-160 507,-350 727,-467 104,-56 276,-131 404,-178 139,-51 278,-70 419,-59 92,8 293,-10 343,-31 18,-8 44,-14 56,-14 32,0 87,25 124,56 27,23 31,32 31,77 0,70 -25,119 -70,134 -19,7 -78,12 -130,12 -52,0 -117,4 -145,10 -64,13 -307,79 -313,86 -14,14 89,38 256,60 103,13 234,31 292,40 58,8 137,19 175,23 116,15 347,63 390,82 98,43 114,54 130,87 19,39 14,92 -11,131 -16,25 -71,30 -120,12 -15,-6 -167,-29 -338,-50 -265,-34 -339,-40 -501,-40 -105,0 -229,5 -275,11 -110,13 -421,72 -580,109 -69,16 -145,31 -170,34 -61,7 -472,146 -573,193 -45,21 -108,59 -141,86 -47,37 -67,47 -97,47 -31,0 -42,-6 -61,-32 z"
       id="path14"
       inkscape:connector-curvature="0" />
  </g>
</svg>
